<svg width="45" height="35" viewBox="0 0 45 35" fill="none" xmlns="http://www.w3.org/2000/svg">
<path d="M41.6992 2.73868C42.6279 3.46129 43.3319 4.3245 43.7728 5.26248C44.4927 7.04612 44.5 8.69034 44.5 12.2259V22.8032C44.5 26.3244 44.4928 27.9687 43.7726 29.7525C43.3321 30.6944 42.6263 31.5613 41.6942 32.2866C40.7604 33.0132 39.6256 33.5771 38.3673 33.9326C36.0219 34.4971 33.8376 34.5 29.3062 34.5H15.6563C11.1434 34.5 8.95985 34.497 6.59654 33.9184C5.34311 33.5626 4.21277 33.0001 3.28209 32.2759C2.35402 31.5538 1.65027 30.6912 1.20936 29.754C0.506916 27.9691 0.5 26.3367 0.5 22.8032V12.1967C0.5 8.67542 0.507228 7.03118 1.22749 5.24724C1.66614 4.30664 2.36927 3.44061 3.29823 2.71541C4.22868 1.98905 5.3597 1.42452 6.61446 1.06729C8.95967 0.502914 11.1626 0.5 15.675 0.5H29.2875C33.8385 0.5 36.0025 0.503046 38.3839 1.09599C39.6376 1.45171 40.7683 2.01435 41.6992 2.73868ZM31.2119 13.5793L31.2189 13.5742L31.2258 13.5689L32.9651 12.2155C33.2509 12.0023 33.4297 11.6871 33.4297 11.3323C33.4297 10.9791 33.2529 10.6626 32.9793 10.4385L32.9794 10.4384L32.9695 10.4307L32.932 10.4015L32.9168 10.3897L32.9007 10.379C31.6125 9.52772 30.1383 8.86707 28.58 8.41583L28.9639 6.90051C29.0693 6.53062 28.9581 6.17775 28.741 5.92126C28.5278 5.66934 28.2152 5.50669 27.8759 5.44576L27.8512 5.44134L27.8263 5.4394L27.6388 5.42481L27.6194 5.4233H27.6H24.2664C23.9714 5.4191 23.6732 5.49387 23.4219 5.64865C23.1689 5.80448 22.9628 6.04382 22.8802 6.34583L22.8802 6.34582L22.8787 6.35133L22.503 7.78956C20.3626 7.90849 18.3591 8.38723 16.8492 9.28494C15.2338 10.2453 14.1625 11.7048 14.1625 13.6849C14.1625 15.413 15.0695 16.6341 16.3581 17.5168C17.6257 18.3851 19.3017 18.9568 20.9568 19.4179C21.2679 19.5084 21.5618 19.5924 21.8388 19.6717C22.9741 19.9965 23.8281 20.2408 24.4394 20.512C24.814 20.6782 25.0443 20.8331 25.1795 20.982C25.2996 21.1144 25.3563 21.2537 25.3563 21.4464C25.3563 21.8248 25.1249 22.2021 24.5108 22.5118C23.8926 22.8235 22.961 23.0181 21.7875 23.0181V23.0181L21.7813 23.0182C19.5161 23.0461 17.3374 22.3734 15.7275 21.1895L15.7258 21.1883C15.4608 20.9951 15.1304 20.8992 14.8031 20.8992C14.4759 20.8992 14.1454 20.9951 13.8805 21.1883L13.8804 21.1882L13.8738 21.1932L11.9988 22.6084L11.9988 22.6084L11.9936 22.6124C11.8597 22.7162 11.7448 22.8463 11.663 22.9996C11.5808 23.1536 11.5353 23.3254 11.5353 23.5035C11.5353 23.6817 11.5808 23.8534 11.663 24.0075C11.7017 24.0801 11.7479 24.1475 11.8 24.2094V24.2685L12.0056 24.4183C13.4553 25.4747 15.1917 26.2468 17.0733 26.6823L16.6939 28.0213L16.6939 28.0212L16.6921 28.0281C16.5962 28.3856 16.6921 28.7458 16.9194 29.0204C17.1409 29.288 17.4646 29.4521 17.8015 29.5109L17.8229 29.5146L17.8444 29.5165L18.0132 29.5311L18.0347 29.5329H18.0562H21.4123C21.4123 29.5329 21.4124 29.5329 21.4125 29.5329C21.7095 29.533 22.0087 29.4542 22.2596 29.2955C22.5104 29.137 22.7133 28.8968 22.7947 28.5961C22.795 28.5952 22.7952 28.5943 22.7955 28.5933L23.1855 27.1926C25.7426 27.028 27.8597 26.3998 29.3706 25.3786C30.9667 24.2998 31.8875 22.7762 31.8875 20.9504C31.8875 19.2213 30.9305 18.0104 29.5307 17.1281C28.153 16.2597 26.2886 15.6685 24.3203 15.1578C24.1247 15.1007 23.9336 15.0459 23.7477 14.9925C22.8394 14.7318 22.0537 14.5062 21.4537 14.2286C20.7177 13.8882 20.4875 13.5742 20.4875 13.2326C20.4875 12.8802 20.714 12.5711 21.3135 12.3258C21.9103 12.0816 22.7462 11.9673 23.6245 11.9673C25.7457 11.9693 27.7856 12.5547 29.3848 13.6047C29.6517 13.7852 29.9777 13.8732 30.3 13.8695C30.6239 13.8657 30.9494 13.7692 31.2119 13.5793Z" fill="black" stroke="#E8E8E8"/>
</svg>
