<svg width="26" height="34" viewBox="0 0 26 34" fill="none" xmlns="http://www.w3.org/2000/svg">
<path fill-rule="evenodd" clip-rule="evenodd" d="M16.4134 33.0733L23.769 29.5316C25.7187 28.5928 26.2755 25.7067 25.3554 23.7959L15.0824 2.46002C14.1627 0.549828 11.8364 -0.239107 9.88662 0.699695L2.53101 4.24136C0.58186 5.17986 -0.253591 7.49038 0.666448 9.40119L10.9395 30.737C11.8608 32.6472 14.4642 34.0118 16.4134 33.0733ZM9.31367 25.7777L5.87053 18.6267L7.474 17.5896L8.89258 20.5358L9.31367 25.7777ZM10.0936 21.5547C10.0936 21.5547 10.7018 24.7431 11.2174 27.4399C17.892 26.4884 22.5386 22.022 22.6069 21.9563L22.6077 21.9555L18.7059 17.4079L10.0936 21.5547ZM18.5454 15.6502L17.2195 12.8965L19.0302 12.2882L22.3815 19.2485L18.5454 15.6502ZM18.5216 11.2319L15.464 4.88158L14.2935 6.81953L16.7127 11.8439L18.5216 11.2319ZM13.621 3.54577L13.2183 6.25887L4.60411 10.4065L2.23138 9.0298L13.621 3.54577ZM6.96365 16.5297L4.64009 11.7039L2.39552 11.4095L5.36137 17.5692L6.96365 16.5297Z" fill="#08B783"/>
</svg>
