<svg width="45" height="35" viewBox="0 0 45 35" fill="none" xmlns="http://www.w3.org/2000/svg">
<mask id="path-1-inside-1_10645_3146" fill="white">
<path d="M38.3144 2.63911C35.8557 0.791931 31.4111 0 25.7251 0H9.223C8.66043 1.37299e-05 8.11632 0.132303 7.68849 0.373085C7.26067 0.613866 6.97719 0.947345 6.88902 1.31357L0.0178308 30.0374C-0.118746 30.6038 0.546669 31.1168 1.41765 31.1168H11.6055L14.1641 20.4199L14.0847 20.7549C14.267 19.9988 15.2481 19.4411 16.4099 19.4411H21.2511C30.7617 19.4411 38.2087 16.8949 40.384 9.52934C40.4486 9.3115 40.5046 9.09947 40.5529 8.89233C40.2783 8.79649 40.2783 8.79649 40.5529 8.89233C41.2007 6.16994 40.5485 4.31683 38.3144 2.63911"/>
</mask>
<path d="M38.3144 2.63911C35.8557 0.791931 31.4111 0 25.7251 0H9.223C8.66043 1.37299e-05 8.11632 0.132303 7.68849 0.373085C7.26067 0.613866 6.97719 0.947345 6.88902 1.31357L0.0178308 30.0374C-0.118746 30.6038 0.546669 31.1168 1.41765 31.1168H11.6055L14.1641 20.4199L14.0847 20.7549C14.267 19.9988 15.2481 19.4411 16.4099 19.4411H21.2511C30.7617 19.4411 38.2087 16.8949 40.384 9.52934C40.4486 9.3115 40.5046 9.09947 40.5529 8.89233C40.2783 8.79649 40.2783 8.79649 40.5529 8.89233C41.2007 6.16994 40.5485 4.31683 38.3144 2.63911" fill="#27346A"/>
<path d="M9.223 0V-1L9.22298 -1L9.223 0ZM6.88902 1.31357L5.9168 1.0795L5.91646 1.08091L6.88902 1.31357ZM0.0178308 30.0374L0.989971 30.2718L0.990391 30.2701L0.0178308 30.0374ZM11.6055 31.1168V32.1168H12.3945L12.5781 31.3494L11.6055 31.1168ZM14.1641 20.4199L15.1371 20.6506L13.1916 20.1873L14.1641 20.4199ZM14.0847 20.7549L13.1117 20.5242L15.0569 20.9893L14.0847 20.7549ZM40.384 9.52934L39.4253 9.2451L39.425 9.2461L40.384 9.52934ZM40.5529 8.89233L41.5267 9.11963L41.731 8.24438L40.8825 7.94819L40.5529 8.89233ZM40.5529 8.89233L40.2234 9.83647L41.2693 10.2016L41.5257 9.12381L40.5529 8.89233ZM38.915 1.8396C37.5199 0.791438 35.6323 0.0906715 33.4274 -0.353448C31.2123 -0.799622 28.6091 -1 25.7251 -1V1C28.5271 1 30.9891 1.19559 33.0325 1.60717C35.0861 2.02081 36.6502 2.6396 37.7137 3.43862L38.915 1.8396ZM25.7251 -1H9.223V1H25.7251V-1ZM9.22298 -1C8.514 -0.999983 7.79626 -0.83506 7.19803 -0.498379L8.17895 1.24455C8.43638 1.09967 8.80687 1.00001 9.22302 1L9.22298 -1ZM7.19803 -0.498379C6.60542 -0.164854 6.08823 0.367428 5.9168 1.0795L7.86124 1.54763C7.86614 1.52726 7.91592 1.39259 8.17895 1.24455L7.19803 -0.498379ZM5.91646 1.08091L-0.954729 29.8048L0.990391 30.2701L7.86158 1.54622L5.91646 1.08091ZM-0.954308 29.803C-1.14287 30.585 -0.734998 31.2235 -0.270669 31.5815C0.190694 31.9372 0.799784 32.1168 1.41765 32.1168V30.1168C1.16454 30.1168 1.00543 30.0399 0.950482 29.9975C0.925746 29.9785 0.946856 29.9862 0.970228 30.0388C0.997798 30.1008 1.01034 30.1874 0.989969 30.2718L-0.954308 29.803ZM1.41765 32.1168H11.6055V30.1168H1.41765V32.1168ZM12.5781 31.3494L15.1367 20.6526L13.1916 20.1873L10.6329 30.8841L12.5781 31.3494ZM13.1911 20.1893L13.1117 20.5242L15.0577 20.9856L15.1371 20.6506L13.1911 20.1893ZM15.0569 20.9893C15.0636 20.9615 15.1166 20.8296 15.3726 20.6847C15.619 20.5452 15.9815 20.4411 16.4099 20.4411V18.4411C15.6765 18.4411 14.9675 18.6158 14.3874 18.9442C13.8168 19.2672 13.2881 19.7922 13.1126 20.5205L15.0569 20.9893ZM16.4099 20.4411H21.2511V18.4411H16.4099V20.4411ZM21.2511 20.4411C26.0774 20.4411 30.4827 19.7979 33.9927 18.1528C37.5396 16.4904 40.1642 13.8043 41.3431 9.81259L39.425 9.2461C38.4286 12.6199 36.242 14.8898 33.1439 16.3418C30.009 17.8112 25.9354 18.4411 21.2511 18.4411V20.4411ZM41.3428 9.81358C41.4129 9.57701 41.4739 9.346 41.5267 9.11963L39.5791 8.66503C39.5352 8.85295 39.4843 9.04599 39.4253 9.2451L41.3428 9.81358ZM40.8825 7.94819C40.8063 7.92161 40.7698 7.90889 40.728 7.89428C40.7099 7.88797 40.6989 7.88412 40.6894 7.88081C40.6838 7.87884 40.6833 7.87866 40.6797 7.87744C40.6749 7.87575 40.683 7.87859 40.6783 7.87695C40.6775 7.87665 40.6781 7.87685 40.6773 7.8766C40.676 7.87613 40.6779 7.87681 40.6767 7.87639C40.6766 7.87633 40.6767 7.87638 40.6766 7.87633C40.6766 7.87633 40.6766 7.87632 40.6765 7.87632C40.6765 7.87632 40.6765 7.87632 40.6765 7.87632C40.6765 7.87632 40.6765 7.87631 40.347 8.82045C40.0174 9.76459 40.0174 9.76459 40.0174 9.76459C40.0174 9.76459 40.0174 9.76459 40.0174 9.7646C40.0174 9.7646 40.0175 9.7646 40.0175 9.7646C40.0175 9.7646 40.0175 9.76461 40.0175 9.76461C40.0176 9.76466 40.0175 9.7646 40.0176 9.76466C40.0177 9.76469 40.0178 9.76471 40.0179 9.76475C40.0182 9.76486 40.0179 9.76475 40.0182 9.76487C40.0199 9.76544 40.017 9.76445 40.0187 9.76503C40.0187 9.76504 40.0189 9.76511 40.019 9.76512C40.019 9.76514 40.019 9.76515 40.0191 9.76517C40.0191 9.76519 40.0192 9.76521 40.0192 9.76522C40.0198 9.7654 40.02 9.76549 40.0206 9.76571C40.0263 9.76769 40.0185 9.76495 40.0247 9.76712C40.0441 9.77388 40.0104 9.76213 40.0303 9.76908C40.0359 9.77103 40.0314 9.76948 40.0375 9.77161C40.0431 9.77356 40.0403 9.77256 40.0464 9.7747C40.0742 9.7844 40.0285 9.76846 40.0568 9.77835C40.0578 9.77867 40.0675 9.78205 40.0689 9.78256C40.0703 9.78304 40.1877 9.82401 40.2234 9.83647L40.8825 7.94819C40.8063 7.92161 40.7698 7.90889 40.728 7.89428C40.7099 7.88797 40.6989 7.88412 40.6894 7.88081C40.6838 7.87884 40.6833 7.87866 40.6797 7.87744C40.6749 7.87575 40.683 7.87859 40.6783 7.87695C40.6775 7.87665 40.6781 7.87685 40.6773 7.8766C40.676 7.87613 40.6779 7.87681 40.6767 7.87639C40.6766 7.87633 40.6767 7.87638 40.6766 7.87633C40.6766 7.87633 40.6766 7.87632 40.6765 7.87632C40.6765 7.87632 40.6765 7.87632 40.6765 7.87632C40.6765 7.87632 40.6765 7.87631 40.347 8.82045C40.0174 9.76459 40.0174 9.76459 40.0174 9.76459C40.0174 9.76459 40.0174 9.76459 40.0174 9.7646C40.0174 9.7646 40.0175 9.7646 40.0175 9.7646C40.0175 9.7646 40.0175 9.76461 40.0175 9.76461C40.0176 9.76466 40.0175 9.7646 40.0176 9.76466C40.0177 9.76469 40.0178 9.76471 40.0179 9.76475C40.0182 9.76486 40.0179 9.76475 40.0182 9.76487C40.0199 9.76544 40.017 9.76445 40.0187 9.76503C40.0187 9.76504 40.0189 9.76511 40.019 9.76512C40.019 9.76514 40.019 9.76515 40.0191 9.76517C40.0191 9.76519 40.0192 9.76521 40.0192 9.76522C40.0198 9.7654 40.02 9.76549 40.0206 9.76571C40.0263 9.76769 40.0185 9.76495 40.0247 9.76712C40.0441 9.77388 40.0104 9.76213 40.0303 9.76908C40.0359 9.77103 40.0314 9.76948 40.0375 9.77161C40.0431 9.77356 40.0403 9.77256 40.0464 9.7747C40.0742 9.7844 40.0285 9.76846 40.0568 9.77835C40.0578 9.77867 40.0675 9.78205 40.0689 9.78256C40.0703 9.78304 40.1877 9.82401 40.2234 9.83647L40.8825 7.94819ZM41.5257 9.12381C41.8785 7.64147 41.9023 6.28905 41.4563 5.03809C41.0097 3.78579 40.1352 2.75592 38.9149 1.83948L37.7139 3.43874C38.7276 4.20002 39.2963 4.93557 39.5724 5.70985C39.849 6.48548 39.8751 7.42081 39.5801 8.66085L41.5257 9.12381Z" fill="#E8E8E8" mask="url(#path-1-inside-1_10645_3146)"/>
<path d="M37.3205 7.62603C36.9527 7.57182 36.5826 7.52514 36.2106 7.48604C34.8839 7.34531 33.4371 7.27904 31.8914 7.27904H18.9542C18.9541 7.27904 18.9541 7.27904 18.954 7.27904C18.5976 7.27892 18.2423 7.33111 17.9127 7.43458L18.0624 7.91163L17.9117 7.43486C17.5552 7.54753 17.2278 7.72084 16.9665 7.95211C16.7046 8.18392 16.5079 8.47589 16.4276 8.81177L16.4276 8.81181L11.211 30.6159H1.41624C1.07265 30.6159 0.801437 30.5136 0.645094 30.393C0.490415 30.2737 0.495604 30.1881 0.503945 30.1534L0.504111 30.1527L7.37512 1.43066C7.37514 1.43054 7.37517 1.43043 7.3752 1.43031C7.42384 1.22892 7.59624 0.998802 7.93329 0.808903C8.26538 0.621799 8.71675 0.5 9.22159 0.5H25.7251C28.5476 0.5 31.0446 0.696785 33.1307 1.11702C35.2219 1.53827 36.8669 2.17755 38.0141 3.03893C39.0796 3.83903 39.7247 4.64791 40.0434 5.54155C40.3176 6.31035 40.3662 7.18652 40.1779 8.24396C39.7627 8.11782 39.3265 8.00562 38.8713 7.90541L38.8692 7.90496C38.36 7.79514 37.8432 7.70206 37.3205 7.62603ZM37.3205 7.62603C37.3203 7.626 37.3202 7.62598 37.32 7.62596L37.2481 8.12075L37.321 7.6261C37.3208 7.62607 37.3207 7.62605 37.3205 7.62603Z" fill="#27346A" stroke="#E8E8E8"/>
<path d="M14.5712 20.8708L14.5712 20.871L11.3881 34.1713L11.388 34.1715C11.3854 34.1826 11.3851 34.1914 11.3928 34.2086C11.4025 34.2304 11.4286 34.2706 11.4893 34.3175C11.6134 34.4133 11.8364 34.4998 12.1254 34.4998H20.7134C20.7134 34.4998 20.7134 34.4998 20.7135 34.4998C21.1322 34.4997 21.5211 34.4002 21.8099 34.2376C22.1014 34.0734 22.2323 33.8812 22.2676 33.7339L22.2704 33.7226L22.2736 33.7114L22.354 33.4343L23.9698 26.6842L23.972 26.6752L23.9745 26.6662L24.0766 26.3004C24.1975 25.8118 24.5602 25.4241 25.0136 25.1687C25.4728 24.9101 26.0353 24.7779 26.6005 24.7778H26.6006H27.8859C32.01 24.7778 35.6355 24.2242 38.4482 22.9058C41.2424 21.5962 43.2373 19.5326 44.1435 16.4656C44.5246 15.1744 44.6034 14.0327 44.3641 13.0479C44.1274 12.0735 43.5702 11.2132 42.6045 10.4877L14.5712 20.8708ZM14.5712 20.8708C14.6195 20.6685 14.7907 20.4387 15.1251 20.2493C15.4547 20.0626 15.9038 19.9409 16.4085 19.9409H21.2511C26.0421 19.9409 30.3644 19.3007 33.7806 17.6994M14.5712 20.8708L33.7806 17.6994M33.7806 17.6994C37.2151 16.0895 39.7301 13.5077 40.8635 9.67116M33.7806 17.6994L40.8635 9.67116M40.8635 9.67116C40.875 9.63234 40.8862 9.59377 40.8971 9.55546M40.8635 9.67116L40.8971 9.55546M40.8971 9.55546C41.5634 9.82474 42.1343 10.135 42.6043 10.4875L40.8971 9.55546Z" fill="#2790C3" stroke="#E8E8E8"/>
<mask id="path-5-inside-2_10645_3146" fill="white">
<path d="M38.2762 8.29393C37.937 8.22865 37.5946 8.17085 37.2496 8.12064C36.8883 8.06828 36.5248 8.02275 36.1596 7.98409C34.8524 7.84464 33.4246 7.77881 31.8912 7.77881H18.9554C18.6466 7.77835 18.3418 7.82404 18.0637 7.91245C17.7613 8.00759 17.4987 8.14989 17.2985 8.32701C17.0984 8.50414 16.9667 8.71075 16.915 8.92897L14.1655 20.4198L14.0861 20.7548C14.2669 19.9987 15.248 19.441 16.41 19.441H21.2526C30.7632 19.441 38.21 16.8948 40.3854 9.52923C40.4501 9.31138 40.5045 9.10029 40.5544 8.89221C40.0035 8.70054 39.4073 8.53492 38.7652 8.39454C38.6031 8.35913 38.4402 8.32559 38.2764 8.29393"/>
</mask>
<path d="M38.2762 8.29393C37.937 8.22865 37.5946 8.17085 37.2496 8.12064C36.8883 8.06828 36.5248 8.02275 36.1596 7.98409C34.8524 7.84464 33.4246 7.77881 31.8912 7.77881H18.9554C18.6466 7.77835 18.3418 7.82404 18.0637 7.91245C17.7613 8.00759 17.4987 8.14989 17.2985 8.32701C17.0984 8.50414 16.9667 8.71075 16.915 8.92897L14.1655 20.4198L14.0861 20.7548C14.2669 19.9987 15.248 19.441 16.41 19.441H21.2526C30.7632 19.441 38.21 16.8948 40.3854 9.52923C40.4501 9.31138 40.5045 9.10029 40.5544 8.89221C40.0035 8.70054 39.4073 8.53492 38.7652 8.39454C38.6031 8.35913 38.4402 8.32559 38.2764 8.29393" fill="#1F264F"/>
<path d="M37.2496 8.12064L37.3936 7.13106L37.393 7.13098L37.2496 8.12064ZM36.1596 7.98409L36.0535 8.97845L36.0544 8.97854L36.1596 7.98409ZM18.9554 7.77881L18.9539 8.77881H18.9554V7.77881ZM18.0637 7.91245L18.3639 8.86635L18.3667 8.86544L18.0637 7.91245ZM16.915 8.92897L17.8875 9.16168L17.888 9.1596L16.915 8.92897ZM14.1655 20.4198L13.1929 20.1871L13.1924 20.1892L14.1655 20.4198ZM14.0861 20.7548L13.113 20.5241L15.0586 20.9874L14.0861 20.7548ZM40.3854 9.52923L39.4268 9.24427L39.4263 9.24598L40.3854 9.52923ZM40.5544 8.89221L41.5268 9.12559L41.7381 8.24525L40.883 7.94775L40.5544 8.89221ZM38.7652 8.39454L38.9787 7.41761L38.9786 7.41759L38.7652 8.39454ZM38.4652 7.31196C38.1109 7.24377 37.7536 7.18345 37.3936 7.13106L37.1056 9.11021C37.4357 9.15826 37.7631 9.21353 38.0872 9.27591L38.4652 7.31196ZM37.393 7.13098C37.019 7.07677 36.6428 7.02964 36.2649 6.98965L36.0544 8.97854C36.4069 9.01585 36.7577 9.05979 37.1062 9.1103L37.393 7.13098ZM36.2657 6.98974C34.9163 6.84578 33.4521 6.77881 31.8912 6.77881V8.77881C33.397 8.77881 34.7886 8.84351 36.0535 8.97845L36.2657 6.98974ZM31.8912 6.77881H18.9554V8.77881H31.8912V6.77881ZM18.9569 6.77881C18.5508 6.77821 18.1428 6.83797 17.7607 6.95946L18.3667 8.86544C18.5407 8.81011 18.7424 8.77849 18.9539 8.77881L18.9569 6.77881ZM17.7636 6.95855C17.3519 7.0881 16.9588 7.2923 16.6358 7.57813L17.9612 9.0759C18.0385 9.00748 18.1708 8.92709 18.3639 8.86634L17.7636 6.95855ZM16.6358 7.57813C16.3116 7.86506 16.0498 8.24343 15.942 8.69834L17.888 9.1596C17.8837 9.17807 17.8852 9.14322 17.9612 9.0759L16.6358 7.57813ZM15.9425 8.69626L13.1929 20.1871L15.138 20.6525L17.8875 9.16168L15.9425 8.69626ZM13.1924 20.1892L13.113 20.5241L15.0591 20.9854L15.1385 20.6505L13.1924 20.1892ZM15.0586 20.9874C15.065 20.9607 15.1171 20.8293 15.3729 20.6845C15.619 20.5451 15.9815 20.441 16.41 20.441V18.441C15.6765 18.441 14.9675 18.6157 14.3874 18.9442C13.8168 19.2672 13.288 19.7928 13.1135 20.5221L15.0586 20.9874ZM16.41 20.441H21.2526V18.441H16.41V20.441ZM21.2526 20.441C26.079 20.441 30.4841 19.7978 33.9941 18.1527C37.541 16.4902 40.1655 13.8042 41.3444 9.81247L39.4263 9.24598C38.4299 12.6198 36.2433 14.8897 33.1453 16.3417C30.0104 17.8111 25.9369 18.441 21.2526 18.441V20.441ZM41.3439 9.81418C41.4154 9.57379 41.4743 9.34435 41.5268 9.12559L39.582 8.65884C39.5347 8.85623 39.4849 9.04897 39.4268 9.24427L41.3439 9.81418ZM40.883 7.94775C40.2898 7.74134 39.6547 7.56538 38.9787 7.41761L38.5516 9.37146C39.1599 9.50446 39.7173 9.65974 40.2258 9.83668L40.883 7.94775ZM38.9786 7.41759C38.8087 7.38045 38.6378 7.34529 38.4662 7.31211L38.0866 9.27576C38.2425 9.3059 38.3976 9.33782 38.5517 9.37149L38.9786 7.41759Z" fill="#E8E8E8" mask="url(#path-5-inside-2_10645_3146)"/>
</svg>
