<svg width="25" height="34" viewBox="0 0 25 34" fill="none" xmlns="http://www.w3.org/2000/svg">
<path fill-rule="evenodd" clip-rule="evenodd" d="M2.64451 30.2024L10.2375 33.2014C12.2503 33.9964 14.7479 32.4467 15.527 30.4742L24.226 8.44966C25.0049 6.47781 24.0056 4.23381 21.9929 3.43885L14.3999 0.439812C12.3878 -0.354898 10.1238 0.59948 9.34476 2.57197L0.645694 24.5965C-0.132091 26.5695 0.632443 29.4077 2.64451 30.2024ZM3.18489 20.0368L6.10049 12.655L7.9504 13.1289L6.74916 16.1702L3.18489 20.0368ZM6.81589 17.7437C6.81589 17.7437 4.88684 20.3542 3.256 22.5631C8.48441 26.8197 14.9182 27.2014 15.0129 27.2071L15.0139 27.2071L15.7062 21.2552L6.81589 17.7437ZM16.8882 19.9444L18.011 17.1018L19.6866 18.0189L16.8487 25.2039L16.8882 19.9444ZM20.1172 16.9286L22.7064 10.3732L20.4887 10.8287L18.4401 16.0153L20.1172 16.9286ZM22.4368 8.11313L20.1708 9.65852L11.2786 6.14634L10.6796 3.46933L22.4368 8.11313ZM8.38255 12.0347L10.3501 7.05322L9.04309 5.20486L6.53165 11.5634L8.38255 12.0347Z" fill="#B7083C"/>
</svg>
