<svg width="45" height="35" viewBox="0 0 45 35" fill="none" xmlns="http://www.w3.org/2000/svg">
<path d="M36.7266 15.5703C36.7266 15.5703 37.3203 18.4766 37.4531 19.0859H34.8438C35.1016 18.3906 36.0938 15.6875 36.0938 15.6875C36.0781 15.7109 36.3516 14.9766 36.5078 14.5234L36.7266 15.5703ZM45 3.75V31.25C45 33.3203 43.3203 35 41.25 35H3.75C1.67969 35 0 33.3203 0 31.25V3.75C0 1.67969 1.67969 0 3.75 0H41.25C43.3203 0 45 1.67969 45 3.75ZM11.9141 23.375L16.8516 11.25H13.5312L10.4609 19.5312L10.125 17.8516L9.03125 12.2734C8.85156 11.5 8.29688 11.2812 7.60938 11.25H2.55469L2.5 11.4922C3.73438 11.8047 4.83594 12.2578 5.79688 12.8281L8.59375 23.375H11.9141ZM19.2891 23.3906L21.2578 11.25H18.1172L16.1562 23.3906H19.2891ZM30.2188 19.4219C30.2344 18.0391 29.3906 16.9844 27.5859 16.1172C26.4844 15.5625 25.8125 15.1875 25.8125 14.6172C25.8281 14.1016 26.3828 13.5703 27.6172 13.5703C28.6406 13.5469 29.3906 13.7891 29.9531 14.0312L30.2344 14.1641L30.6641 11.5391C30.0469 11.2969 29.0625 11.0234 27.8516 11.0234C24.75 11.0234 22.5703 12.6797 22.5547 15.0391C22.5312 16.7812 24.1172 17.75 25.3047 18.3359C26.5156 18.9297 26.9297 19.3203 26.9297 19.8438C26.9141 20.6562 25.9453 21.0312 25.0469 21.0312C23.7969 21.0312 23.125 20.8359 22.1016 20.3828L21.6875 20.1875L21.25 22.9141C21.9844 23.25 23.3438 23.5469 24.75 23.5625C28.0469 23.5703 30.1953 21.9375 30.2188 19.4219ZM41.25 23.3906L38.7188 11.25H36.2891C35.5391 11.25 34.9688 11.4687 34.6484 12.2578L29.9844 23.3906H33.2812C33.2812 23.3906 33.8203 21.8906 33.9375 21.5703H37.9688C38.0625 22 38.3438 23.3906 38.3438 23.3906H41.25Z" fill="black"/>
</svg>
