<svg width="30" height="13" viewBox="0 0 30 13" fill="none" xmlns="http://www.w3.org/2000/svg">
<path d="M7.80471 10.9738C8.04813 10.8852 8.29275 10.8011 8.53843 10.7215C9.5518 10.3931 10.1484 9.29997 9.77435 8.30256C9.25952 6.92968 10.2744 5.4652 11.7406 5.4652L18.28 5.4652C19.7463 5.4652 20.7612 6.92968 20.2463 8.30256C19.8918 9.24784 20.4685 10.2823 21.4359 10.571C21.8445 10.693 22.2504 10.8272 22.6531 10.9738C23.4567 11.2662 24.2387 11.6046 24.9957 11.986C26.244 12.6149 27.833 12.0727 28.2649 10.7434L29.4032 7.24016C29.5906 6.66343 29.4278 6.02654 28.9633 5.63675C25.0539 2.35638 20.1137 0.558301 15.0103 0.558301C9.90698 0.558301 4.9668 2.35638 1.05741 5.63675C0.592551 6.02681 0.429687 6.66415 0.617206 7.24128L1.81726 10.9347C2.25461 12.2807 3.8753 12.8165 5.12803 12.1579C5.98848 11.7056 6.88238 11.3095 7.80471 10.9738Z" fill="#C2CCDE" fill-opacity="0.25" stroke="white" stroke-linecap="round" stroke-linejoin="round"/>
</svg>
