<svg width="24" height="18" viewBox="0 0 24 18" fill="none" xmlns="http://www.w3.org/2000/svg">
<path d="M11.9817 14.7682C10.0544 14.7682 8.12656 14.7682 6.19823 14.7682C4.99328 14.7682 4.01239 13.9807 3.75386 12.8066C3.71503 12.6264 3.69539 12.4426 3.69526 12.2583C3.69143 10.4567 3.69143 8.65507 3.69526 6.85345C3.69526 5.71944 4.63057 4.77036 5.76773 4.75202C6.5755 4.7398 7.25151 4.45056 7.79768 3.84803C8.43961 3.13966 9.25312 2.78891 10.2049 2.77821C11.3662 2.76599 12.528 2.76599 13.6903 2.77821C14.6095 2.78929 15.4181 3.11215 16.0408 3.79912C16.6265 4.44521 17.3392 4.74476 18.2048 4.75699C19.2171 4.77113 20.1582 5.64303 20.275 6.64369C20.2953 6.81411 20.3057 6.98557 20.306 7.1572C20.3083 8.85056 20.3083 10.5444 20.306 12.2388C20.306 13.677 19.2187 14.7666 17.7812 14.7678C15.8488 14.7693 13.9156 14.7694 11.9817 14.7682ZM12.0024 13.8829C13.904 13.8829 15.8061 13.8699 17.7073 13.8879C18.6878 13.8974 19.4286 13.1619 19.4148 12.1892C19.3907 10.4897 19.4083 8.78867 19.4079 7.08995C19.4079 7.02003 19.4079 6.95011 19.4014 6.88019C19.3777 6.54338 19.2271 6.22797 18.98 5.99729C18.7328 5.76661 18.4073 5.63773 18.0689 5.63653C17.024 5.62532 16.1497 5.23522 15.446 4.46623C14.9638 3.93896 14.3682 3.67418 13.6505 3.67648C12.5083 3.6803 11.3658 3.67648 10.2237 3.67839C10.0835 3.67739 9.94352 3.68774 9.80504 3.70933C9.25695 3.80142 8.80539 4.06658 8.43233 4.47655C7.76513 5.21052 6.93093 5.62278 5.93931 5.62507C5.23994 5.62507 4.57733 6.12635 4.58767 6.97877C4.6095 8.72906 4.59342 10.4797 4.59571 12.2304C4.59285 12.3702 4.6057 12.5099 4.63402 12.6469C4.80445 13.3866 5.44102 13.8814 6.22121 13.8821C8.14826 13.8842 10.0753 13.8844 12.0024 13.8829Z" fill="#5A5A5A"/>
<path d="M14.0155 6.67944L14.4423 5.94709L14.4898 5.98738L14.7692 9.23088C14.096 8.74505 13.4389 8.27169 12.7596 7.78442L13.2676 7.33504C12.9488 6.98158 12.6038 6.77488 12.2197 6.73171C11.2135 6.61853 10.4437 7.27605 10.0267 8.58343C9.92063 8.91579 9.69005 9.05247 9.47327 8.91339C9.26524 8.78102 9.17032 8.44962 9.2713 8.12685C9.72539 6.67128 10.5023 5.79842 11.6134 5.58021C12.4826 5.40947 13.2517 5.76821 13.9186 6.5768C13.9359 6.59591 13.954 6.61368 13.9728 6.63004L14.0155 6.67944Z" fill="#5A5A5A"/>
<path d="M9.999 11.8045L9.44834 12.4428C9.37523 11.3616 9.3045 10.3197 9.23071 9.23096L11.2046 10.7954L10.7131 11.1525C10.9655 11.4436 11.268 11.6393 11.5911 11.7206C12.6031 11.9887 13.5298 11.3175 13.9721 10.0047C14.0689 9.71698 14.2276 9.57919 14.4212 9.6148C14.5088 9.6296 14.5902 9.68444 14.6527 9.77061C14.7152 9.85678 14.7551 9.96936 14.7661 10.0905C14.7759 10.2132 14.762 10.3372 14.7259 10.45C14.249 11.879 13.4509 12.7175 12.3157 12.8956C11.4303 13.0348 10.663 12.6462 9.999 11.8045Z" fill="#5A5A5A"/>
</svg>
