<svg width="24" height="24" viewBox="0 0 24 24" fill="none" xmlns="http://www.w3.org/2000/svg">
<path d="M9.30618 6.3001C9.30618 4.80893 10.515 3.6001 12.0062 3.6001C13.4973 3.6001 14.7062 4.80893 14.7062 6.3001V11.7001C14.7062 13.1913 13.4973 14.4001 12.0062 14.4001C10.515 14.4001 9.30618 13.1913 9.30618 11.7001V6.3001Z" fill="#C2CCDE" fill-opacity="0.25"/>
<path d="M15.0062 20.4001H9.00618M12.0062 16.5001V20.4001M12.0062 16.5001C9.35521 16.5001 7.20618 14.3511 7.20618 11.7001V9.3001M12.0062 16.5001C14.6571 16.5001 16.8062 14.3511 16.8062 11.7001V9.3001M3.6001 20.4001L20.4001 3.6001M12.0062 14.4001C10.515 14.4001 9.30618 13.1913 9.30618 11.7001V6.3001C9.30618 4.80893 10.515 3.6001 12.0062 3.6001C13.4973 3.6001 14.7062 4.80893 14.7062 6.3001V11.7001C14.7062 13.1913 13.4973 14.4001 12.0062 14.4001Z" stroke="#414141" stroke-linecap="round" stroke-linejoin="round"/>
</svg>
