<svg width="24" height="24" viewBox="0 0 24 24" fill="none" xmlns="http://www.w3.org/2000/svg">
<path d="M6.6 13.2002C6.26863 13.2002 6 12.9316 6 12.6002L6 11.4002C6 11.0688 6.26863 10.8002 6.6 10.8002L7.8 10.8002C8.13137 10.8002 8.4 11.0688 8.4 11.4002L8.4 12.6002C8.4 12.9316 8.13137 13.2002 7.8 13.2002L6.6 13.2002Z" fill="#C2CCDE" fill-opacity="0.25"/>
<path d="M11.4 13.2002C11.0686 13.2002 10.8 12.9316 10.8 12.6002L10.8 11.4002C10.8 11.0688 11.0686 10.8002 11.4 10.8002L12.6 10.8002C12.9314 10.8002 13.2 11.0688 13.2 11.4002L13.2 12.6002C13.2 12.9316 12.9314 13.2002 12.6 13.2002L11.4 13.2002Z" fill="#C2CCDE" fill-opacity="0.25"/>
<path d="M16.2 13.2002C15.8686 13.2002 15.6 12.9316 15.6 12.6002L15.6 11.4002C15.6 11.0688 15.8686 10.8002 16.2 10.8002L17.4 10.8002C17.7314 10.8002 18 11.0688 18 11.4002L18 12.6002C18 12.9316 17.7314 13.2002 17.4 13.2002L16.2 13.2002Z" fill="#C2CCDE" fill-opacity="0.25"/>
<path d="M6.6 13.2002C6.26863 13.2002 6 12.9316 6 12.6002L6 11.4002C6 11.0688 6.26863 10.8002 6.6 10.8002L7.8 10.8002C8.13137 10.8002 8.4 11.0688 8.4 11.4002L8.4 12.6002C8.4 12.9316 8.13137 13.2002 7.8 13.2002L6.6 13.2002Z" stroke="#414141" stroke-linecap="round" stroke-linejoin="round"/>
<path d="M11.4 13.2002C11.0686 13.2002 10.8 12.9316 10.8 12.6002L10.8 11.4002C10.8 11.0688 11.0686 10.8002 11.4 10.8002L12.6 10.8002C12.9314 10.8002 13.2 11.0688 13.2 11.4002L13.2 12.6002C13.2 12.9316 12.9314 13.2002 12.6 13.2002L11.4 13.2002Z" stroke="#414141" stroke-linecap="round" stroke-linejoin="round"/>
<path d="M16.2 13.2002C15.8686 13.2002 15.6 12.9316 15.6 12.6002L15.6 11.4002C15.6 11.0688 15.8686 10.8002 16.2 10.8002L17.4 10.8002C17.7314 10.8002 18 11.0688 18 11.4002L18 12.6002C18 12.9316 17.7314 13.2002 17.4 13.2002L16.2 13.2002Z" stroke="#414141" stroke-linecap="round" stroke-linejoin="round"/>
</svg>
