<svg width="24" height="24" viewBox="0 0 24 24" fill="none" xmlns="http://www.w3.org/2000/svg">
<path d="M2.40002 9.5998C2.40002 8.93706 2.93728 8.3998 3.60002 8.3998H15C15.6628 8.3998 16.2 8.93706 16.2 9.5998V17.9998C16.2 18.6625 15.6628 19.1998 15 19.1998H3.60002C2.93728 19.1998 2.40002 18.6625 2.40002 17.9998V9.5998Z" fill="#C2CCDE" fill-opacity="0.25"/>
<path d="M16.2 16.1161L20.7826 17.8979C21.1759 18.0509 21.6 17.7607 21.6 17.3387V10.4528C21.6 10.0308 21.1759 9.74068 20.7826 9.89362L16.2 11.6754V16.1161Z" fill="#C2CCDE" fill-opacity="0.25"/>
<path d="M12.6 11.3998C12.6 11.7312 12.8687 11.9998 13.2 11.9998C13.5314 11.9998 13.8 11.7312 13.8 11.3998C13.8 11.0684 13.5314 10.7998 13.2 10.7998C12.8687 10.7998 12.6 11.0684 12.6 11.3998Z" fill="#C2CCDE" fill-opacity="0.25"/>
<path d="M14.4 4.7998H7.20002C6.53728 4.7998 6.00002 5.33706 6.00002 5.9998V8.3998M3.60002 19.1998H15C15.6628 19.1998 16.2 18.6625 16.2 17.9998V9.5998C16.2 8.93706 15.6628 8.3998 15 8.3998H3.60002C2.93728 8.3998 2.40002 8.93706 2.40002 9.5998V17.9998C2.40002 18.6625 2.93728 19.1998 3.60002 19.1998ZM20.7826 17.8979L16.2 16.1161V11.6754L20.7826 9.89362C21.1759 9.74068 21.6 10.0308 21.6 10.4528V17.3387C21.6 17.7607 21.1759 18.0509 20.7826 17.8979ZM13.2 11.9998C12.8687 11.9998 12.6 11.7312 12.6 11.3998C12.6 11.0684 12.8687 10.7998 13.2 10.7998C13.5314 10.7998 13.8 11.0684 13.8 11.3998C13.8 11.7312 13.5314 11.9998 13.2 11.9998Z" stroke="#5A5A5A" stroke-linecap="round" stroke-linejoin="round"/>
</svg>
