<svg width="26" height="26" viewBox="0 0 26 26" fill="none" xmlns="http://www.w3.org/2000/svg">
<path d="M20.1906 15.9853C19.9558 15.8758 19.7234 15.7623 19.4934 15.6449C18.5446 15.1605 17.3498 15.5116 16.909 16.4814C16.3023 17.8162 14.5491 18.1341 13.5123 17.0973L8.88828 12.4733C7.8515 11.4365 8.16941 9.68332 9.50422 9.07659C10.4233 8.65883 10.747 7.51959 10.2671 6.6314C10.0644 6.25623 9.87229 5.87427 9.6912 5.48591C9.32981 4.7109 9.0161 3.9187 8.75047 3.11364C8.3125 1.7863 6.80557 1.0461 5.56019 1.68066L2.27813 3.35295C1.73782 3.62825 1.40256 4.1937 1.45541 4.79779C1.9002 9.88173 4.122 14.6464 7.73061 18.255C11.3392 21.8636 16.1039 24.0854 21.1878 24.5302C21.7923 24.5831 22.3582 24.2476 22.6337 23.7069L24.3967 20.2467C25.0393 18.9857 24.2721 17.4608 22.9206 17.0407C21.9924 16.7521 21.0802 16.4001 20.1906 15.9853Z" fill="#C2CCDE" fill-opacity="0.25" stroke="white" stroke-linecap="round" stroke-linejoin="round"/>
</svg>
