<svg width="60" height="46" viewBox="0 0 60 46" fill="none" xmlns="http://www.w3.org/2000/svg">
<path d="M19.2342 44.6041H19.2392H19.2393H19.2393H19.2393H19.2394H19.2394H19.2395H19.2395H19.2396H19.2396H19.2396H19.2397H19.2397H19.2398H19.2398H19.2398H19.2399H19.2399H19.24H19.24H19.2401H19.2401H19.2401H19.2402H19.2402H19.2403H19.2403H19.2404H19.2404H19.2404H19.2405H19.2405H19.2406H19.2406H19.2406H19.2407H19.2407H19.2408H19.2408H19.2409H19.2409H19.2409H19.241H19.241H19.2411H19.2411H19.2412H19.2412H19.2412H19.2413H19.2413H19.2414H19.2414H19.2414H19.2415H19.2415H19.2416H19.2416H19.2417H19.2417H19.2417H19.2418H19.2418H19.2419H19.2419H19.242H19.242H19.242H19.2421H19.2421H19.2422H19.2422H19.2422H19.2423H19.2423H19.2424H19.2424H19.2425H19.2425H19.2425H19.2426H19.2426H19.2427H19.2427H19.2428H19.2428H19.2428H19.2429H19.2429H19.243H19.243H19.243H19.2431H19.2431H19.2432H19.2432H19.2433H19.2433H19.2433H19.2434H19.2434H19.2435H19.2435H19.2436H19.2436H19.2436H19.2437H19.2437H19.2438H19.2438H19.2438H19.2439H19.2439H19.244H19.244H19.2441H19.2441H19.2441H19.2442H19.2442H19.2443H19.2443H19.2444H19.2444H19.2444H19.2445H19.2445H19.2446H19.2446H19.2446H19.2447H19.2447H19.2448H19.2448H19.2449H19.2449H19.2449H19.245H19.245H19.2451H19.2451H19.2452H19.2452H19.2452H19.2453H19.2453H19.2454H19.2454H19.2454H19.2455H19.2455H19.2456H19.2456H19.2457H19.2457H19.2457H19.2458H19.2458H19.2459H19.2459H19.246H19.246H19.246H19.2461H19.2461H19.2462H19.2462H19.2462H19.2463H19.2463H19.2464H19.2464H19.2465H19.2465H19.2465H19.2466H19.2466H19.2467H19.2467H19.2468H19.2468H19.2468H19.2469H19.2469H19.247H19.247H19.247H19.2471H19.2471H19.2472H19.2472H19.2473H19.2473H19.2473H19.2474H19.2474H19.2475H19.2475H19.2476H19.2476H19.2476H19.2477H19.2477H19.2478H19.2478H19.2478H19.2479H19.2479H19.248H19.248H19.2481H19.2481H19.2481H19.2482H19.2482H19.2483H19.2483H19.2484H19.2484H19.2484H19.2485H19.2485H19.2486H19.2486H19.2486H19.2487H19.2487H19.2488H19.2488H19.2489H19.2489H19.2489H19.249H19.249H19.2491H19.2491H19.2491H19.2492H19.2492H19.2493H19.2493H19.2494H19.2494H19.2494H19.2495H19.2495H19.2496H19.2496H19.2497H19.2497H19.2497H19.2498H19.2498H19.2499H19.2499H19.2499H19.25C20.2266 44.6041 21.1663 44.2169 21.857 43.5223C21.8576 43.5217 21.8582 43.5211 21.8588 43.5205L57.6896 7.68965C59.13 6.24921 59.13 3.91384 57.6896 2.4734C56.2491 1.03296 53.9139 1.03296 52.4734 2.4734L19.2663 35.6806L7.54327 23.7717C7.54314 23.7716 7.543 23.7714 7.54287 23.7713C6.11465 22.3189 3.77612 22.3066 2.3272 23.731L2.32598 23.7322C0.877247 25.1612 0.855738 27.4959 2.28704 28.9475C2.28724 28.9478 2.28744 28.948 2.28764 28.9482L16.6204 43.5031L16.6208 43.5036C17.3135 44.206 18.2526 44.5992 19.2342 44.6041Z" fill="#08B783" stroke="#08B783" stroke-width="2"/>
</svg>
