<svg width="16" height="16" viewBox="0 0 16 16" fill="none" xmlns="http://www.w3.org/2000/svg">
<path d="M8.00005 13.1998C10.8719 13.1998 13.2 10.8717 13.2 7.9998C13.2 5.12792 10.8719 2.7998 8.00005 2.7998C5.12817 2.7998 2.80005 5.12792 2.80005 7.9998C2.80005 9.31172 3.28588 10.5102 4.08744 11.425L3.20005 13.1998L8.00005 13.1998Z" fill="#C2CCDE" fill-opacity="0.25"/>
<path d="M7.90005 4.7998V9.2798M7.90005 10.7198V11.0398M13.2 7.9998C13.2 10.8717 10.8719 13.1998 8.00005 13.1998L3.20005 13.1998L4.08743 11.425C3.28588 10.5102 2.80005 9.31172 2.80005 7.9998C2.80005 5.12792 5.12817 2.7998 8.00005 2.7998C10.8719 2.7998 13.2 5.12792 13.2 7.9998Z" stroke="#414141" stroke-linecap="round" stroke-linejoin="round"/>
</svg>
