<svg width="16" height="18" viewBox="0 0 16 18" fill="none" xmlns="http://www.w3.org/2000/svg">
<path d="M11 4.49964L11 9.89905L11 12.2995C11 12.9624 10.4626 13.4996 9.79976 13.4995L7.34283 13.4991L4.99998 13.4993L4.99998 15.8995C4.99998 16.5624 5.53736 17.0996 6.20019 17.0995L13.3998 17.0996C14.0626 17.0997 14.6 16.5624 14.6 15.8996L14.6 5.69964C14.6 5.03689 14.0627 4.49964 13.4 4.49964L11 4.49964Z" fill="#C2CCDE" fill-opacity="0.25"/>
<path d="M9.79998 0.899652C10.4627 0.899652 11 1.43691 11 2.09965L11 9.89905L11 12.2995C11 12.9624 10.4626 13.4996 9.79976 13.4995L7.34283 13.4991L2.60011 13.4996C1.93732 13.4997 1.39998 12.9624 1.39998 12.2996L1.39998 2.09965C1.39998 1.43691 1.93724 0.899651 2.59998 0.899651L9.79998 0.899652Z" fill="#C2CCDE" fill-opacity="0.25"/>
<path d="M11 9.89905L11 4.49963L13.4 4.49964C14.0627 4.49964 14.6 5.03689 14.6 5.69964L14.6 15.8996C14.6 16.5624 14.0626 17.0997 13.3998 17.0996L6.20019 17.0995C5.53736 17.0996 4.99998 16.5624 4.99998 15.8995L4.99998 13.4993L7.34283 13.4991M11 9.89905L11 12.2995C11 12.9624 10.4626 13.4996 9.79976 13.4995L7.34283 13.4991M11 9.89905L11 2.09965C11 1.43691 10.4627 0.899652 9.79998 0.899652L2.59998 0.899652C1.93724 0.899652 1.39998 1.43691 1.39998 2.09965L1.39998 12.2996C1.39998 12.9624 1.93732 13.4997 2.60011 13.4996L7.34283 13.4991" stroke="#414141" stroke-linecap="round" stroke-linejoin="round"/>
</svg>
