<svg width="18" height="15" viewBox="0 0 18 15" fill="none" xmlns="http://www.w3.org/2000/svg">
<path d="M2.21184 2.00408C1.42419 2.79173 0.981689 3.86002 0.981689 4.97393C0.98169 6.08784 1.42419 7.15612 2.21184 7.94378L8.5758 14.3077C8.81012 14.5421 9.19002 14.5421 9.42433 14.3077L15.7883 7.94378C16.5759 7.15612 17.0184 6.08784 17.0184 4.97393C17.0184 3.86002 16.5759 2.79173 15.7883 2.00408C15.0006 1.21642 13.9324 0.773926 12.8184 0.773926C11.7045 0.773926 10.6362 1.21643 9.84859 2.00408L9.20737 2.6453C9.09288 2.75979 8.90725 2.75979 8.79276 2.6453L8.15154 2.00408C7.36389 1.21643 6.2956 0.773926 5.18169 0.773926C4.06778 0.773926 2.99949 1.21642 2.21184 2.00408Z" fill="#C2CCDE" fill-opacity="0.25" stroke="#414141" stroke-linecap="round" stroke-linejoin="round"/>
</svg>
