<svg width="18" height="16" viewBox="0 0 18 16" fill="none" xmlns="http://www.w3.org/2000/svg">
<path d="M2.21184 2.24163C1.42419 3.02928 0.981689 4.09757 0.981689 5.21147C0.98169 6.32538 1.42419 7.39367 2.21184 8.18132L8.5758 14.5453C8.81012 14.7796 9.19002 14.7796 9.42433 14.5453L15.7883 8.18132C16.5759 7.39367 17.0184 6.32539 17.0184 5.21147C17.0184 4.09756 16.5759 3.02928 15.7883 2.24163C15.0006 1.45397 13.9324 1.01147 12.8184 1.01147C11.7045 1.01148 10.6362 1.45397 9.84859 2.24163L9.20737 2.88285C9.09288 2.99734 8.90725 2.99734 8.79276 2.88285L8.15154 2.24163C7.36389 1.45397 6.2956 1.01148 5.18169 1.01147C4.06778 1.01147 2.99949 1.45397 2.21184 2.24163Z" fill="#C2CCDE" fill-opacity="0.25" stroke="#B8B8B8" stroke-linecap="round" stroke-linejoin="round"/>
</svg>
