<svg width="16" height="16" viewBox="0 0 16 16" fill="none" xmlns="http://www.w3.org/2000/svg">
<path d="M3.6001 3.20039C3.6001 2.75856 3.95827 2.40039 4.4001 2.40039H11.6001C12.0419 2.40039 12.4001 2.75856 12.4001 3.20039V12.8004C12.4001 13.2422 12.0419 13.6004 11.6001 13.6004H4.4001C3.95827 13.6004 3.6001 13.2422 3.6001 12.8004V3.20039Z" fill="#C2CCDE" fill-opacity="0.25"/>
<path d="M5.6001 4.80039H10.4001M5.6001 6.40039H8.8001M5.6001 8.00039H10.4001M5.6001 9.60039H8.8001M5.6001 11.2004H10.4001M4.4001 13.6004H11.6001C12.0419 13.6004 12.4001 13.2422 12.4001 12.8004V3.20039C12.4001 2.75856 12.0419 2.40039 11.6001 2.40039H4.4001C3.95827 2.40039 3.6001 2.75856 3.6001 3.20039V12.8004C3.6001 13.2422 3.95827 13.6004 4.4001 13.6004Z" stroke="#414141" stroke-linecap="round" stroke-linejoin="round"/>
</svg>
