<svg width="34" height="34" viewBox="0 0 34 34" fill="none" xmlns="http://www.w3.org/2000/svg">
<rect width="34" height="34" rx="4" fill="white"/>
<path d="M16.5 26C18.3789 26 20.2157 25.4428 21.7779 24.399C23.3402 23.3551 24.5578 21.8714 25.2769 20.1355C25.9959 18.3996 26.184 16.4895 25.8175 14.6467C25.4509 12.8038 24.5461 11.1111 23.2175 9.78252C21.8889 8.45392 20.1962 7.54914 18.3534 7.18258C16.5106 6.81602 14.6004 7.00415 12.8645 7.72318C11.1286 8.44221 9.64494 9.65985 8.60107 11.2221C7.5572 12.7844 7.00003 14.6211 7.00003 16.5C7.00273 19.0187 8.00448 21.4335 9.78549 23.2145C11.5665 24.9956 13.9813 25.9973 16.5 26ZM15.8214 8.39178V9.71432C15.8214 9.89429 15.8929 10.0669 16.0202 10.1941C16.1474 10.3214 16.32 10.3929 16.5 10.3929C16.68 10.3929 16.8526 10.3214 16.9798 10.1941C17.1071 10.0669 17.1786 9.89429 17.1786 9.71432V8.39178C19.0946 8.5542 20.8915 9.38913 22.2512 10.7488C23.6109 12.1086 24.4458 13.9054 24.6082 15.8214H23.2857C23.1057 15.8214 22.9332 15.8929 22.8059 16.0202C22.6786 16.1475 22.6071 16.3201 22.6071 16.5C22.6071 16.68 22.6786 16.8526 22.8059 16.9798C22.9332 17.1071 23.1057 17.1786 23.2857 17.1786H24.6082C24.4458 19.0946 23.6109 20.8915 22.2512 22.2512C20.8915 23.6109 19.0946 24.4458 17.1786 24.6083V23.2857C17.1786 23.1058 17.1071 22.9332 16.9798 22.8059C16.8526 22.6786 16.68 22.6071 16.5 22.6071C16.32 22.6071 16.1474 22.6786 16.0202 22.8059C15.8929 22.9332 15.8214 23.1058 15.8214 23.2857V24.6083C13.9054 24.4458 12.1086 23.6109 10.7488 22.2512C9.38913 20.8915 8.5542 19.0946 8.39178 17.1786H9.71431C9.89428 17.1786 10.0669 17.1071 10.1941 16.9798C10.3214 16.8526 10.3929 16.68 10.3929 16.5C10.3929 16.3201 10.3214 16.1475 10.1941 16.0202C10.0669 15.8929 9.89428 15.8214 9.71431 15.8214H8.39178C8.5542 13.9054 9.38913 12.1086 10.7488 10.7488C12.1086 9.38913 13.9054 8.5542 15.8214 8.39178Z" fill="#5A5A5A"/>
<path d="M16.0202 19.0154C16.1475 19.1426 16.32 19.2141 16.5 19.2141C16.6799 19.2141 16.8525 19.1426 16.9797 19.0154L19.0154 16.9797C19.1426 16.8525 19.2141 16.6799 19.2141 16.5C19.2141 16.32 19.1426 16.1475 19.0154 16.0202L16.9797 13.9845C16.8525 13.8573 16.6799 13.7858 16.5 13.7858C16.32 13.7858 16.1475 13.8573 16.0202 13.9845L13.9845 16.0202C13.8573 16.1475 13.7858 16.32 13.7858 16.5C13.7858 16.6799 13.8573 16.8525 13.9845 16.9797L16.0202 19.0154ZM16.5 15.4238L17.5762 16.5L16.5 17.5762L15.4238 16.5L16.5 15.4238Z" fill="#5A5A5A"/>
</svg>
