<svg width="16" height="20" viewBox="0 0 16 20" fill="none" xmlns="http://www.w3.org/2000/svg">
<path fill-rule="evenodd" clip-rule="evenodd" d="M8 1.53027C11.3137 1.53027 14 4.21657 14 7.53027V7.89167C14 9.21753 13.5857 10.5103 12.8151 11.5892L8.01185 18.3137C8.00604 18.3218 7.99396 18.3218 7.98815 18.3137L3.18491 11.5892C2.41427 10.5103 2 9.21753 2 7.89167L2 7.53027C2 4.21657 4.68629 1.53027 8 1.53027ZM10.6351 6.96459C10.4521 6.16265 9.91385 5.4877 9.17275 5.13081C8.43164 4.77391 7.56835 4.77391 6.82725 5.13081C6.08615 5.4877 5.5479 6.16265 5.36486 6.96459C5.18182 7.76653 5.37392 8.60817 5.88678 9.25128C6.39964 9.89438 7.17744 10.2689 8 10.2689C8.82256 10.2689 9.60036 9.89438 10.1132 9.25128C10.6261 8.60817 10.8182 7.76653 10.6351 6.96459Z" fill="#414141"/>
<path d="M12.8151 11.5892L11.5945 10.7173V10.7173L12.8151 11.5892ZM8.01185 18.3137L9.23245 19.1855L9.23245 19.1855L8.01185 18.3137ZM7.98815 18.3137L6.76755 19.1855L6.76755 19.1855L7.98815 18.3137ZM3.18491 11.5892L1.96431 12.461L1.96431 12.461L3.18491 11.5892ZM9.17275 5.13081L9.82357 3.77935L9.82357 3.77935L9.17275 5.13081ZM10.6351 6.96459L9.17274 7.29837L9.17275 7.29837L10.6351 6.96459ZM5.36486 6.96459L3.90247 6.63081H3.90247L5.36486 6.96459ZM5.88678 9.25128L4.71403 10.1865H4.71403L5.88678 9.25128ZM10.1132 9.25128L11.286 10.1865H11.286L10.1132 9.25128ZM15.5 7.53027C15.5 3.38814 12.1421 0.0302734 8 0.0302734V3.03027C10.4853 3.03027 12.5 5.04499 12.5 7.53027H15.5ZM15.5 7.89167V7.53027H12.5V7.89167H15.5ZM14.0357 12.461C14.988 11.1277 15.5 9.53016 15.5 7.89167H12.5C12.5 8.90489 12.1834 9.8928 11.5945 10.7173L14.0357 12.461ZM9.23245 19.1855L14.0357 12.461L11.5945 10.7173L6.79125 17.4418L9.23245 19.1855ZM6.76755 19.1855C7.37159 20.0312 8.62841 20.0312 9.23245 19.1855L6.79126 17.4418C7.38368 16.6124 8.61632 16.6124 9.20874 17.4418L6.76755 19.1855ZM1.96431 12.461L6.76755 19.1855L9.20875 17.4418L4.40551 10.7173L1.96431 12.461ZM0.5 7.89167C0.5 9.53016 1.01196 11.1277 1.96431 12.461L4.40551 10.7173C3.81659 9.8928 3.5 8.9049 3.5 7.89167H0.5ZM0.5 7.53027L0.5 7.89167H3.5V7.53027H0.5ZM8 0.0302734C3.85786 0.0302734 0.5 3.38814 0.5 7.53027H3.5C3.5 5.04499 5.51472 3.03027 8 3.03027V0.0302734ZM8.52192 6.48226C8.85174 6.64109 9.09129 6.94147 9.17274 7.29837L12.0975 6.63081C11.8129 5.38383 10.976 4.33431 9.82357 3.77935L8.52192 6.48226ZM7.47808 6.48226C7.8079 6.32343 8.1921 6.32343 8.52192 6.48226L9.82357 3.77935C8.67119 3.2244 7.32881 3.2244 6.17643 3.77935L7.47808 6.48226ZM6.82725 7.29837C6.90871 6.94147 7.14825 6.64109 7.47808 6.48226L6.17643 3.77935C5.02404 4.33431 4.18708 5.38383 3.90247 6.63081L6.82725 7.29837ZM7.05953 8.31604C6.83128 8.02983 6.74579 7.65527 6.82725 7.29837L3.90247 6.63081C3.61785 7.87779 3.91656 9.18651 4.71403 10.1865L7.05953 8.31604ZM8 8.76895C7.63392 8.76895 7.28777 8.60225 7.05953 8.31604L4.71403 10.1865C5.51151 11.1865 6.72095 11.7689 8 11.7689L8 8.76895ZM8.94047 8.31604C8.71222 8.60225 8.36607 8.76895 8 8.76895L8 11.7689C9.27905 11.7689 10.4885 11.1865 11.286 10.1865L8.94047 8.31604ZM9.17275 7.29837C9.2542 7.65527 9.16871 8.02983 8.94047 8.31604L11.286 10.1865C12.0834 9.18651 12.3821 7.87779 12.0975 6.63081L9.17275 7.29837Z" fill="#414141"/>
</svg>
