<svg width="24" height="24" viewBox="0 0 24 24" fill="none" xmlns="http://www.w3.org/2000/svg">
<path d="M7.79998 21.5999C7.13723 21.5999 6.59998 21.0626 6.59998 20.3999L6.59998 5.99991C6.59998 5.33716 7.13723 4.79991 7.79998 4.79991L16.2 4.7999C16.8627 4.7999 17.4 5.33716 17.4 5.9999L17.4 20.3999C17.4 21.0626 16.8627 21.5999 16.2 21.5999H7.79998Z" fill="#C2CCDE" fill-opacity="0.25"/>
<path d="M14.4 2.3999L9.59996 2.3999M10.2 16.1999L13.8 13.1999L10.2 13.1999L13.8 10.1999M17.4 20.3999L17.4 5.9999C17.4 5.33716 16.8627 4.7999 16.2 4.7999L7.79998 4.79991C7.13723 4.79991 6.59998 5.33716 6.59998 5.99991L6.59998 20.3999C6.59998 21.0626 7.13723 21.5999 7.79998 21.5999H16.2C16.8627 21.5999 17.4 21.0626 17.4 20.3999Z" stroke="#414141" stroke-linecap="round" stroke-linejoin="round"/>
</svg>
