<svg width="8" height="16" viewBox="0 0 8 16" fill="none" xmlns="http://www.w3.org/2000/svg">
<path d="M4.30546 11.3569V11.715L4.64451 11.8303C4.95781 11.9368 5.20658 12.11 5.41744 12.3465L5.56655 12.5137H5.79058H5.90729L5.90729 14.7173H5.77457H5.55423L5.40555 14.8799C5.19898 15.1059 4.9559 15.2788 4.64451 15.3846L4.64447 15.3845L4.63394 15.3884C3.91182 15.6521 3.10517 15.4341 2.59458 14.8789L2.44602 14.7173H2.22653H2.10182V12.5137H2.21852H2.44255L2.59167 12.3465C2.80253 12.11 3.05129 11.9368 3.36459 11.8303L3.70364 11.715V11.3569L3.70364 8.50911H4.30546V11.3569ZM1.60182 1.10182L0.5 1.10182L0.5 0.5L7.50911 0.5V1.10182H6.40729L5.90729 1.10182V1.60182V2.40273L5.90729 2.90273H6.40729L7.50911 2.90273V6.7082L0.5 6.7082L0.5 2.90273L1.60182 2.90273H2.10182V2.40273V1.60182L2.10182 1.10182L1.60182 1.10182ZM4.00455 14.9164C4.34958 14.9164 4.68047 14.7793 4.92444 14.5354C5.1684 14.2914 5.30546 13.9605 5.30546 13.6155C5.30546 13.2705 5.1684 12.9396 4.92444 12.6956C4.68047 12.4516 4.34958 12.3146 4.00455 12.3146C3.65953 12.3146 3.32864 12.4516 3.08467 12.6956C2.8407 12.9396 2.70364 13.2705 2.70364 13.6155C2.70364 13.9605 2.8407 14.2914 3.08467 14.5354C3.32864 14.7793 3.65953 14.9164 4.00455 14.9164ZM4.00455 6.10637C4.34958 6.10637 4.68047 5.96932 4.92444 5.72535C5.1684 5.48138 5.30546 5.15049 5.30546 4.80546C5.30546 4.46044 5.1684 4.12955 4.92444 3.88558C4.68047 3.64161 4.34958 3.50455 4.00455 3.50455C3.65953 3.50455 3.32864 3.64161 3.08467 3.88558C2.8407 4.12955 2.70364 4.46044 2.70364 4.80546C2.70364 5.15049 2.8407 5.48138 3.08467 5.72535C3.32864 5.96932 3.65953 6.10637 4.00455 6.10637Z" stroke="#414141"/>
</svg>
