<svg width="16" height="18" viewBox="0 0 16 18" fill="none" xmlns="http://www.w3.org/2000/svg">
<path d="M6.12654 14.1001C5.99377 14.3764 5.92159 14.6831 5.92159 15.0001C5.92159 15.7427 6.31774 16.4288 6.96082 16.8001C7.6039 17.1714 8.3962 17.1714 9.03928 16.8001C9.68236 16.4288 10.0785 15.7427 10.0785 15.0001C10.0785 14.6831 10.0063 14.3764 9.87356 14.1001H6.12654Z" fill="#C2CCDE" fill-opacity="0.25"/>
<path d="M7.88827 2.1001C6.61523 2.1001 5.39434 2.60581 4.49416 3.50598L4.30594 3.69421C3.40576 4.59438 2.90005 5.81529 2.90005 7.08832V7.96977C2.90005 9.59004 2.25639 11.1439 1.11069 12.2896C0.911789 12.4885 0.800049 12.7583 0.800049 13.0396C0.800049 13.6253 1.27488 14.1001 1.86061 14.1001H14.1395C14.7252 14.1001 15.2 13.6253 15.2 13.0396C15.2 12.7583 15.0883 12.4885 14.8894 12.2896C13.7437 11.1439 13.1 9.59004 13.1 7.96977V7.08832C13.1 5.81528 12.5943 4.59439 11.6942 3.69421L11.5059 3.50599C10.6058 2.60581 9.38486 2.1001 8.11182 2.1001H7.88827Z" fill="#C2CCDE" fill-opacity="0.25"/>
<path d="M8.60005 2.12498V1.2001C8.60005 0.868727 8.33142 0.600098 8.00005 0.600098C7.66868 0.600098 7.40005 0.868727 7.40005 1.2001V2.12498C7.56155 2.10847 7.72448 2.1001 7.88827 2.1001H8.11182C8.27562 2.1001 8.43855 2.10847 8.60005 2.12498Z" fill="#C2CCDE" fill-opacity="0.25"/>
<path d="M7.88827 2.1001C6.61523 2.1001 5.39434 2.60581 4.49416 3.50598L4.30594 3.69421C3.40576 4.59438 2.90005 5.81529 2.90005 7.08832V7.96977C2.90005 9.59004 2.2564 11.1439 1.11069 12.2896C0.911789 12.4885 0.800049 12.7583 0.800049 13.0396C0.800049 13.6253 1.27488 14.1001 1.86061 14.1001H14.1395C14.7252 14.1001 15.2 13.6253 15.2 13.0396C15.2 12.7583 15.0883 12.4885 14.8894 12.2896C13.7437 11.1439 13.1 9.59004 13.1 7.96977V7.08832C13.1 5.81528 12.5943 4.59439 11.6942 3.69421L11.5059 3.50598C10.6058 2.60581 9.38486 2.1001 8.11182 2.1001M7.88827 2.1001H8.11182M7.88827 2.1001C7.72448 2.1001 7.56155 2.10847 7.40005 2.12498V1.2001C7.40005 0.868727 7.66868 0.600098 8.00005 0.600098C8.33142 0.600098 8.60005 0.868727 8.60005 1.2001V2.12498C8.43855 2.10847 8.27562 2.1001 8.11182 2.1001M5.92159 15.0001C5.92159 14.6831 5.99377 14.3764 6.12654 14.1001H9.87356C10.0063 14.3764 10.0785 14.6831 10.0785 15.0001C10.0785 15.7427 9.68236 16.4288 9.03928 16.8001C8.3962 17.1714 7.6039 17.1714 6.96082 16.8001C6.31774 16.4288 5.92159 15.7427 5.92159 15.0001Z" stroke="#414141" stroke-linecap="round" stroke-linejoin="round"/>
</svg>
