<svg width="19" height="19" viewBox="0 0 19 19" fill="none" xmlns="http://www.w3.org/2000/svg">
<path d="M12.0281 2.47642C13.1027 1.97248 14.4228 2.16441 15.3105 3.05209C16.1981 3.93978 16.3901 5.25981 15.8861 6.33446C17.0024 6.738 17.8 7.80713 17.8 9.0625C17.8 10.3179 17.0024 11.387 15.8861 11.7905C16.3901 12.8652 16.1981 14.1852 15.3105 15.0729C14.4228 15.9606 13.1027 16.1525 12.0281 15.6486C11.6245 16.7648 10.5554 17.5625 9.30005 17.5625C8.04467 17.5625 6.97555 16.7648 6.57201 15.6486C5.49736 16.1525 4.17732 15.9606 3.28964 15.0729C2.40196 14.1852 2.21002 12.8652 2.71397 11.7905C1.59774 11.387 0.800049 10.3179 0.800049 9.0625C0.800049 7.80713 1.59774 6.738 2.71397 6.33446C2.21002 5.25981 2.40196 3.93978 3.28964 3.05209C4.17732 2.16441 5.49736 1.97248 6.572 2.47642C6.97555 1.36019 8.04467 0.5625 9.30005 0.5625C10.5554 0.5625 11.6245 1.36019 12.0281 2.47642Z" fill="#C2CCDE" fill-opacity="0.25"/>
<path d="M6.15544 7.71245C5.74272 7.29974 5.74272 6.6306 6.15544 6.21788C6.56815 5.80517 7.23729 5.80517 7.65 6.21788C8.06272 6.6306 8.06272 7.29974 7.65 7.71245C7.23729 8.12516 6.56815 8.12516 6.15544 7.71245Z" fill="#C2CCDE" fill-opacity="0.25"/>
<path d="M10.3402 11.8972C9.92751 11.4845 9.92751 10.8154 10.3402 10.4027C10.7529 9.98996 11.4221 9.98996 11.8348 10.4027C12.2475 10.8154 12.2475 11.4845 11.8348 11.8972C11.4221 12.3099 10.7529 12.3099 10.3402 11.8972Z" fill="#C2CCDE" fill-opacity="0.25"/>
<path d="M12.2084 5.69478L5.63234 12.2709M15.3105 3.05209C14.4228 2.16441 13.1027 1.97248 12.0281 2.47642C11.6245 1.36019 10.5554 0.5625 9.30005 0.5625C8.04467 0.5625 6.97555 1.36019 6.572 2.47642C5.49736 1.97248 4.17732 2.16441 3.28964 3.05209C2.40196 3.93978 2.21002 5.25981 2.71397 6.33446C1.59774 6.738 0.800049 7.80713 0.800049 9.0625C0.800049 10.3179 1.59774 11.387 2.71397 11.7905C2.21002 12.8652 2.40196 14.1852 3.28964 15.0729C4.17732 15.9606 5.49736 16.1525 6.57201 15.6486C6.97555 16.7648 8.04467 17.5625 9.30005 17.5625C10.5554 17.5625 11.6245 16.7648 12.0281 15.6486C13.1027 16.1525 14.4228 15.9606 15.3105 15.0729C16.1981 14.1852 16.3901 12.8652 15.8861 11.7905C17.0024 11.387 17.8 10.3179 17.8 9.0625C17.8 7.80713 17.0024 6.738 15.8861 6.33446C16.3901 5.25981 16.1981 3.93978 15.3105 3.05209ZM7.65 7.71245C7.23729 8.12516 6.56815 8.12516 6.15544 7.71245C5.74272 7.29974 5.74272 6.6306 6.15544 6.21788C6.56815 5.80517 7.23729 5.80517 7.65 6.21788C8.06272 6.6306 8.06272 7.29974 7.65 7.71245ZM11.8348 11.8972C11.4221 12.3099 10.7529 12.3099 10.3402 11.8972C9.92751 11.4845 9.92751 10.8154 10.3402 10.4027C10.7529 9.98996 11.4221 9.98996 11.8348 10.4027C12.2475 10.8154 12.2475 11.4845 11.8348 11.8972Z" stroke="#414141" stroke-linecap="round" stroke-linejoin="round"/>
</svg>
