<svg width="12" height="22" viewBox="0 0 12 22" fill="none" xmlns="http://www.w3.org/2000/svg">
<path d="M1.79998 20.5999C1.13723 20.5999 0.599976 20.0626 0.599976 19.3999L0.599976 4.99991C0.599976 4.33716 1.13723 3.79991 1.79998 3.79991L10.2 3.7999C10.8627 3.7999 11.4 4.33716 11.4 4.9999L11.4 19.3999C11.4 20.0626 10.8627 20.5999 10.2 20.5999H1.79998Z" fill="#C2CCDE" fill-opacity="0.25"/>
<path d="M8.39997 1.3999L3.59996 1.3999M4.19998 15.1999L7.79998 12.1999L4.19998 12.1999L7.79998 9.19991M11.4 19.3999L11.4 4.9999C11.4 4.33716 10.8627 3.7999 10.2 3.7999L1.79998 3.79991C1.13723 3.79991 0.599976 4.33716 0.599976 4.99991L0.599976 19.3999C0.599976 20.0626 1.13723 20.5999 1.79998 20.5999H10.2C10.8627 20.5999 11.4 20.0626 11.4 19.3999Z" stroke="#414141" stroke-linecap="round" stroke-linejoin="round"/>
</svg>
