<svg width="24" height="25" viewBox="0 0 24 25" fill="none" xmlns="http://www.w3.org/2000/svg">
<path d="M18 21.7624H6.00005C5.33731 21.7624 4.80005 21.2252 4.80005 20.5624C4.80005 18.5775 6.03149 16.8009 7.89014 16.1043L8.25916 15.966C10.6712 15.062 13.3289 15.062 15.7409 15.966L16.11 16.1043C17.9686 16.8009 19.2 18.5775 19.2 20.5624C19.2 21.2252 18.6628 21.7624 18 21.7624Z" fill="#C2CCDE" fill-opacity="0.25"/>
<path d="M10.1705 12.4226C11.3189 13.0125 12.6812 13.0125 13.8296 12.4226C14.8984 11.8736 15.6641 10.8737 15.9155 9.69878L15.9826 9.3852C16.2397 8.18371 15.9651 6.92973 15.2294 5.94565L15.1216 5.80155C14.3858 4.81734 13.2289 4.23779 12 4.23779C10.7712 4.23779 9.61428 4.81734 8.87846 5.80155L8.77072 5.94565C8.035 6.92973 7.76038 8.18371 8.01748 9.3852L8.08457 9.69878C8.33598 10.8737 9.10172 11.8736 10.1705 12.4226Z" fill="#C2CCDE" fill-opacity="0.25"/>
<path d="M18 21.7624H6.00005C5.33731 21.7624 4.80005 21.2252 4.80005 20.5624C4.80005 18.5775 6.03149 16.8009 7.89014 16.1043L8.25916 15.966C10.6712 15.062 13.3289 15.062 15.7409 15.966L16.11 16.1043C17.9686 16.8009 19.2 18.5775 19.2 20.5624C19.2 21.2252 18.6628 21.7624 18 21.7624Z" stroke="#414141" stroke-linecap="round" stroke-linejoin="round"/>
<path d="M10.1705 12.4226C11.3189 13.0125 12.6812 13.0125 13.8296 12.4226C14.8984 11.8736 15.6641 10.8737 15.9155 9.69878L15.9826 9.3852C16.2397 8.18371 15.9651 6.92973 15.2294 5.94565L15.1216 5.80155C14.3858 4.81734 13.2289 4.23779 12 4.23779C10.7712 4.23779 9.61428 4.81734 8.87846 5.80155L8.77072 5.94565C8.035 6.92973 7.76038 8.18371 8.01748 9.3852L8.08457 9.69878C8.33598 10.8737 9.10172 11.8736 10.1705 12.4226Z" stroke="#414141" stroke-linecap="round" stroke-linejoin="round"/>
</svg>
