<svg width="16" height="16" viewBox="0 0 16 16" fill="none" xmlns="http://www.w3.org/2000/svg">
<path d="M4.99345 7.86089C4.91852 8.21744 4.68809 8.5218 4.36525 8.69065C4.01123 8.87581 3.58897 8.87581 3.23495 8.69065C2.9121 8.5218 2.68167 8.21744 2.60674 7.86089L2.58076 7.73727C2.50364 7.37031 2.5864 6.98788 2.80833 6.68564L2.85041 6.62833C3.07239 6.32602 3.42504 6.14746 3.8001 6.14746C4.17515 6.14746 4.5278 6.32602 4.74979 6.62833L4.79186 6.68564C5.01379 6.98788 5.09655 7.37031 5.01943 7.73727L4.99345 7.86089Z" fill="#C2CCDE" fill-opacity="0.25"/>
<path d="M1.6001 11.2262C1.6001 11.4324 1.76725 11.5996 1.97343 11.5996H4.26223C4.40939 10.9458 4.80977 10.3742 5.37511 10.0126C5.27336 9.94001 5.1614 9.87951 5.0409 9.83353L4.95653 9.80133C4.21177 9.51712 3.38843 9.51712 2.64366 9.80133L2.55929 9.83353C1.9817 10.0539 1.6001 10.608 1.6001 11.2262Z" fill="#C2CCDE" fill-opacity="0.25"/>
<path d="M14.0268 11.5996H11.738C11.5908 10.9458 11.1905 10.3742 10.6251 10.0126C10.7269 9.94005 10.8388 9.87955 10.9593 9.83357L11.0437 9.80138C11.7884 9.51717 12.6118 9.51717 13.3565 9.80138L13.4409 9.83357C14.0185 10.054 14.4001 10.6081 14.4001 11.2263C14.4001 11.4325 14.233 11.5996 14.0268 11.5996Z" fill="#C2CCDE" fill-opacity="0.25"/>
<path d="M11.0067 7.86093C11.0817 8.21748 11.3121 8.52184 11.6349 8.6907C11.989 8.87585 12.4112 8.87585 12.7652 8.6907C13.0881 8.52184 13.3185 8.21748 13.3935 7.86093L13.4194 7.73731C13.4966 7.37036 13.4138 6.98792 13.1919 6.68568L13.1498 6.62838C12.9278 6.32607 12.5752 6.1475 12.2001 6.1475C11.825 6.1475 11.4724 6.32607 11.2504 6.62838L11.2083 6.68568C10.9864 6.98792 10.9036 7.37036 10.9808 7.73731L11.0067 7.86093Z" fill="#C2CCDE" fill-opacity="0.25"/>
<path d="M11.1601 12.7996H4.8401C4.48664 12.7996 4.2001 12.5131 4.2001 12.1596C4.2001 11.1003 4.85536 10.1514 5.846 9.77623L6.01231 9.71324C7.29311 9.22815 8.70709 9.22815 9.98788 9.71324L10.1542 9.77623C11.1448 10.1514 11.8001 11.1003 11.8001 12.1596C11.8001 12.5131 11.5136 12.7996 11.1601 12.7996Z" fill="#C2CCDE" fill-opacity="0.25"/>
<path d="M7.02836 7.81519C7.63759 8.13143 8.3626 8.13143 8.97183 7.81519C9.53217 7.52433 9.93275 6.99775 10.0635 6.38011L10.1045 6.1868C10.2387 5.55285 10.0949 4.89175 9.70952 4.37081L9.64346 4.28152C9.25797 3.76049 8.64823 3.45312 8.0001 3.45312C7.35196 3.45312 6.74222 3.76049 6.35674 4.28153L6.29068 4.37081C5.90526 4.89175 5.76149 5.55285 5.89573 6.1868L5.93666 6.38011C6.06744 6.99775 6.46802 7.52433 7.02836 7.81519Z" fill="#C2CCDE" fill-opacity="0.25"/>
<path d="M4.99345 7.86089C4.91852 8.21744 4.68809 8.5218 4.36525 8.69065C4.01123 8.87581 3.58897 8.87581 3.23495 8.69065C2.9121 8.5218 2.68167 8.21744 2.60674 7.86089L2.58076 7.73727C2.50364 7.37031 2.5864 6.98788 2.80833 6.68564L2.85041 6.62833C3.07239 6.32602 3.42504 6.14746 3.8001 6.14746C4.17515 6.14746 4.5278 6.32602 4.74979 6.62833L4.79186 6.68564C5.01379 6.98788 5.09655 7.37031 5.01943 7.73727L4.99345 7.86089Z" stroke="#414141" stroke-linecap="round" stroke-linejoin="round"/>
<path d="M1.6001 11.2262C1.6001 11.4324 1.76725 11.5996 1.97343 11.5996H4.26223C4.40939 10.9458 4.80977 10.3742 5.37511 10.0126C5.27336 9.94001 5.1614 9.87951 5.0409 9.83353L4.95653 9.80133C4.21177 9.51712 3.38843 9.51712 2.64366 9.80133L2.55929 9.83353C1.9817 10.0539 1.6001 10.608 1.6001 11.2262Z" stroke="#414141" stroke-linecap="round" stroke-linejoin="round"/>
<path d="M14.0268 11.5996H11.738C11.5908 10.9458 11.1905 10.3742 10.6251 10.0126C10.7269 9.94005 10.8388 9.87955 10.9593 9.83357L11.0437 9.80138C11.7884 9.51717 12.6118 9.51717 13.3565 9.80138L13.4409 9.83357C14.0185 10.054 14.4001 10.6081 14.4001 11.2263C14.4001 11.4325 14.233 11.5996 14.0268 11.5996Z" stroke="#414141" stroke-linecap="round" stroke-linejoin="round"/>
<path d="M11.0067 7.86093C11.0817 8.21748 11.3121 8.52184 11.6349 8.6907C11.989 8.87585 12.4112 8.87585 12.7652 8.6907C13.0881 8.52184 13.3185 8.21748 13.3935 7.86093L13.4194 7.73731C13.4966 7.37036 13.4138 6.98792 13.1919 6.68568L13.1498 6.62838C12.9278 6.32607 12.5752 6.1475 12.2001 6.1475C11.825 6.1475 11.4724 6.32607 11.2504 6.62838L11.2083 6.68568C10.9864 6.98792 10.9036 7.37036 10.9808 7.73731L11.0067 7.86093Z" stroke="#414141" stroke-linecap="round" stroke-linejoin="round"/>
<path d="M11.1601 12.7996H4.8401C4.48664 12.7996 4.2001 12.5131 4.2001 12.1596C4.2001 11.1003 4.85536 10.1514 5.846 9.77623L6.01231 9.71324C7.29311 9.22815 8.70709 9.22815 9.98788 9.71324L10.1542 9.77623C11.1448 10.1514 11.8001 11.1003 11.8001 12.1596C11.8001 12.5131 11.5136 12.7996 11.1601 12.7996Z" stroke="#414141" stroke-linecap="round" stroke-linejoin="round"/>
<path d="M7.02836 7.81519C7.63759 8.13143 8.3626 8.13143 8.97183 7.81519C9.53217 7.52433 9.93275 6.99775 10.0635 6.38011L10.1045 6.1868C10.2387 5.55285 10.0949 4.89175 9.70952 4.37081L9.64346 4.28152C9.25797 3.76049 8.64823 3.45312 8.0001 3.45312C7.35196 3.45312 6.74222 3.76049 6.35674 4.28153L6.29068 4.37081C5.90526 4.89175 5.76149 5.55285 5.89573 6.1868L5.93666 6.38011C6.06744 6.99775 6.46802 7.52433 7.02836 7.81519Z" stroke="#414141" stroke-linecap="round" stroke-linejoin="round"/>
</svg>
