<svg width="19" height="19" viewBox="0 0 19 19" fill="none" xmlns="http://www.w3.org/2000/svg">
<path d="M16.036 17.3247L12.2175 13.5051C11.8663 13.1538 11.8663 12.5843 12.2176 12.2331C12.5689 11.8817 13.1385 11.8818 13.4898 12.2332L17.3083 16.0527C17.6595 16.404 17.6595 16.9735 17.3082 17.3247C16.9569 17.6761 16.3873 17.676 16.036 17.3247Z" fill="#C2CCDE" fill-opacity="0.25"/>
<path d="M1.67902 5.72068C2.20754 3.74821 3.74821 2.20754 5.72068 1.67902C7.69315 1.1505 9.79774 1.71443 11.2417 3.15837C12.6856 4.60232 13.2496 6.70691 12.721 8.67938C12.1925 10.6518 10.6518 12.1925 8.67938 12.721C6.70691 13.2496 4.60232 12.6856 3.15837 11.2417C1.71443 9.79774 1.1505 7.69315 1.67902 5.72068Z" fill="#C2CCDE" fill-opacity="0.25"/>
<path d="M11.2335 11.2495L12.2173 12.2333M12.2175 13.5051L16.036 17.3247C16.3873 17.676 16.9569 17.6761 17.3082 17.3247C17.6595 16.9735 17.6595 16.404 17.3083 16.0527L13.4898 12.2332C13.1385 11.8818 12.5689 11.8817 12.2176 12.2331C11.8663 12.5843 11.8663 13.1538 12.2175 13.5051ZM3.15837 11.2417C1.71443 9.79774 1.1505 7.69315 1.67902 5.72068C2.20754 3.74821 3.74821 2.20754 5.72068 1.67902C7.69315 1.1505 9.79774 1.71443 11.2417 3.15837C12.6856 4.60232 13.2496 6.70691 12.721 8.67938C12.1925 10.6518 10.6518 12.1925 8.67938 12.721C6.70691 13.2496 4.60232 12.6856 3.15837 11.2417Z" stroke="#414141" stroke-linecap="round" stroke-linejoin="round"/>
</svg>
