<svg width="16" height="16" viewBox="0 0 16 16" fill="none" xmlns="http://www.w3.org/2000/svg">
<path d="M6.21059 13.9999C5.17504 13.6907 4.23719 13.1187 3.48832 12.3395C3.72927 12.0537 3.87947 11.7026 3.9197 11.331C3.95993 10.9593 3.88837 10.5842 3.71417 10.2534C3.53997 9.92272 3.27105 9.6515 2.94183 9.47448C2.61261 9.29746 2.23806 9.2227 1.86611 9.25975C1.78138 8.84468 1.73879 8.42212 1.73901 7.99849C1.73901 7.34422 1.83919 6.71311 2.02577 6.1202H2.05206C2.37129 6.1203 2.68529 6.03904 2.96439 5.88408C3.24349 5.72913 3.47849 5.50559 3.64721 5.23459C3.81592 4.96358 3.91278 4.65404 3.92863 4.3352C3.94449 4.01637 3.87882 3.69875 3.73782 3.41234C4.47179 2.7289 5.35943 2.23209 6.32579 1.96387C6.48306 2.27266 6.72268 2.53192 7.01816 2.71297C7.31363 2.89403 7.65343 2.98981 7.99997 2.98972C8.3465 2.98981 8.6863 2.89403 8.98177 2.71297C9.27725 2.53192 9.51688 2.27266 9.67414 1.96387C10.6405 2.23209 11.5281 2.7289 12.2621 3.41234C12.1201 3.70075 12.0545 4.02079 12.0715 4.34182C12.0886 4.66286 12.1878 4.97414 12.3596 5.24587C12.5314 5.5176 12.7701 5.74068 13.0528 5.89377C13.3355 6.04686 13.6527 6.12482 13.9742 6.1202C14.1648 6.72805 14.2615 7.36144 14.2609 7.99849C14.2609 8.43049 14.2171 8.85248 14.1338 9.26007C13.7619 9.22301 13.3873 9.29777 13.0581 9.47479C12.7289 9.65181 12.46 9.92303 12.2858 10.2538C12.1116 10.5845 12.04 10.9596 12.0802 11.3313C12.1205 11.7029 12.2707 12.0541 12.5116 12.3398C11.7627 13.1189 10.8249 13.6908 9.78935 13.9999C9.66774 13.6209 9.42894 13.2903 9.10735 13.0557C8.78576 12.8212 8.398 12.6948 7.99997 12.6948C7.60193 12.6948 7.21417 12.8212 6.89258 13.0557C6.57099 13.2903 6.33219 13.6209 6.21059 13.9999Z" stroke="#414141" stroke-linejoin="round"/>
<path d="M7.99993 10.1893C8.2877 10.1893 8.57265 10.1326 8.83851 10.0225C9.10438 9.91238 9.34595 9.75096 9.54943 9.54748C9.75292 9.344 9.91433 9.10243 10.0245 8.83656C10.1346 8.5707 10.1913 8.28574 10.1913 7.99797C10.1913 7.7102 10.1346 7.42525 10.0245 7.15939C9.91433 6.89352 9.75292 6.65195 9.54943 6.44847C9.34595 6.24498 9.10438 6.08357 8.83851 5.97345C8.57265 5.86332 8.2877 5.80664 7.99993 5.80664C7.41875 5.80664 6.86138 6.03751 6.45042 6.44847C6.03947 6.85942 5.80859 7.4168 5.80859 7.99797C5.80859 8.57915 6.03947 9.13653 6.45042 9.54748C6.86138 9.95843 7.41875 10.1893 7.99993 10.1893Z" stroke="#414141" stroke-linejoin="round"/>
</svg>
