<svg width="30" height="26" viewBox="0 0 30 26" fill="none" xmlns="http://www.w3.org/2000/svg">
<path d="M1 3.76245V21.7625C1 23.4193 2.34315 24.7625 4 24.7625H26C27.6569 24.7625 29 23.4193 29 21.7625V7.76245C29 6.1056 27.6569 4.76245 26 4.76245H25V3.76245C25 2.1056 23.6569 0.762451 22 0.762451H4C2.34315 0.762451 1 2.1056 1 3.76245Z" fill="#C2CCDE" fill-opacity="0.25"/>
<path d="M21 14.2625C21 13.1579 21.8954 12.2625 23 12.2625C24.1046 12.2625 25 13.1579 25 14.2625C25 15.367 24.1046 16.2625 23 16.2625C21.8954 16.2625 21 15.367 21 14.2625Z" fill="#C2CCDE" fill-opacity="0.25"/>
<path d="M25 4.76245V3.76245C25 2.1056 23.6569 0.762451 22 0.762451H4C2.34315 0.762451 1 2.1056 1 3.76245V21.7625C1 23.4193 2.34315 24.7625 4 24.7625H26C27.6569 24.7625 29 23.4193 29 21.7625V7.76245C29 6.1056 27.6569 4.76245 26 4.76245H25ZM25 4.76245H6.25M23 16.2625C21.8954 16.2625 21 15.367 21 14.2625C21 13.1579 21.8954 12.2625 23 12.2625C24.1046 12.2625 25 13.1579 25 14.2625C25 15.367 24.1046 16.2625 23 16.2625Z" stroke="white" stroke-linecap="round" stroke-linejoin="round"/>
</svg>
